<svg width="514" height="143" viewBox="0 0 514 143" fill="none" xmlns="http://www.w3.org/2000/svg">
<path d="M141 92V97.319H151.674V117.502H158.997V97.319H169.671V92H141Z" fill="white"/>
<path d="M173.387 106.354C173.387 112.839 177.723 117.502 186.393 117.502H194.008C202.678 117.502 207.014 112.839 207.014 106.354V103.148C207.014 96.6632 202.678 92 194.008 92H186.393C177.723 92 173.387 96.6632 173.387 103.148V106.354ZM187.996 96.9182H192.368C197.505 96.9182 199.472 98.8491 199.472 103.294V106.208C199.472 110.616 197.505 112.584 192.368 112.584H187.996C182.896 112.584 180.929 110.616 180.929 106.208V103.294C180.929 98.8491 182.896 96.9182 187.996 96.9182Z" fill="white"/>
<path d="M232.953 117.502H241.623L227.779 103.658L239.474 92H230.803L219.109 103.658L232.953 117.502ZM218.963 117.502V92H211.422V117.502H218.963Z" fill="white"/>
<path d="M244.246 106.828C244.246 113.167 248.29 117.502 254.702 117.502H273.756V112.183H255.686C253.463 112.183 251.788 110.726 251.788 108.176V107.046H272.918V101.873H251.788V100.634C251.788 98.667 253.063 97.319 255.686 97.319H273.756V92H254.666C248.29 92 244.246 96.3718 244.246 102.674V106.828Z" fill="white"/>
<path d="M277.581 92V117.502H285.122V98.9584L301.006 117.502H312.082V92L304.54 92.1093V110.835L288.438 92H277.581Z" fill="white"/>
<path d="M316.49 106.828C316.49 113.167 320.534 117.502 326.945 117.502H345.999V112.183H327.929C325.707 112.183 324.031 110.726 324.031 108.176V107.046H345.161V101.873H324.031V100.634C324.031 98.667 325.306 97.319 327.929 97.319H345.999V92H326.909C320.534 92 316.49 96.3718 316.49 102.674V106.828Z" fill="white"/>
<path d="M357.948 106.645H372.12C376.674 106.645 376.528 112.183 372.12 112.219H351.755V117.502H375.108L375.071 117.466C380.208 117.028 382.758 113.422 382.831 109.779C382.904 105.807 379.953 101.8 374.051 101.8H360.207C356.018 101.8 356.163 96.8818 360.207 96.8818H381.046V92H356.965L357.001 92.0364C352.265 92.4372 349.897 95.7524 349.824 99.1041C349.751 102.784 352.484 106.609 357.948 106.645Z" fill="white"/>
<path d="M386.875 92V97.319H397.549V117.502H404.872V97.319H415.546V92H386.875Z" fill="white"/>
<path d="M415.474 117.502H423.452C423.452 117.502 427.714 106.281 430.483 100.015C431.248 98.3026 432.123 97.8654 434.272 97.8654C436.422 97.8654 437.296 98.3026 438.061 100.015C440.83 106.281 445.092 117.502 445.092 117.502H453.071C453.071 117.502 446.732 101.326 444.109 96.0439C442.433 92.6558 440.138 92 436.531 92H432.013C428.407 92 426.112 92.6558 424.436 96.0439C421.813 101.326 415.474 117.502 415.474 117.502Z" fill="white"/>
<path d="M451.577 92V97.319H462.251V117.502H469.574V97.319H480.249V92H451.577Z" fill="white"/>
<path d="M483.964 106.828C483.964 113.167 488.008 117.502 494.42 117.502H513.474V112.183H495.404C493.182 112.183 491.506 110.726 491.506 108.176V107.046H512.636V101.873H491.506V100.634C491.506 98.667 492.781 97.319 495.404 97.319H513.474V92H494.384C488.008 92 483.964 96.3718 483.964 102.674V106.828Z" fill="white"/>
<path d="M84.1493 52.5817V46.5006C97.4863 56.1245 106.188 71.7985 106.189 89.4692C106.189 118.666 82.4344 142.421 53.2361 142.421C24.0394 142.421 0.284546 118.666 0.284546 89.4692C0.284546 71.7985 8.986 56.1245 22.326 46.5006V52.5817C11.7936 61.4209 5.08721 74.6758 5.08721 89.4692C5.08721 106.381 13.8536 121.285 27.0823 129.875V0L41.3479 7.86257V136.131C42.9049 136.527 44.4913 136.847 46.1041 137.087V38.6643L60.3697 46.53V137.089C61.9809 136.849 63.5674 136.529 65.1229 136.132V77.4138L79.3916 85.2748V129.873C92.6186 121.285 101.387 106.383 101.387 89.4692C101.387 74.6758 94.6786 61.4209 84.1493 52.5817Z" fill="white"/>
</svg>
