<svg width="373" height="221" viewBox="0 0 373 221" fill="none" xmlns="http://www.w3.org/2000/svg">
<path d="M0 195.209V200.528H10.6744V220.711H17.9971V200.528H28.6715V195.209H0Z" fill="white"/>
<path d="M32.3875 209.563C32.3875 216.048 36.7228 220.711 45.3934 220.711H53.0076C61.6782 220.711 66.0136 216.048 66.0136 209.563V206.357C66.0136 199.872 61.6782 195.209 53.0076 195.209H45.3934C36.7228 195.209 32.3875 199.872 32.3875 206.357V209.563ZM46.9964 200.127H51.3682C56.505 200.127 58.4723 202.058 58.4723 206.503V209.417C58.4723 213.825 56.505 215.793 51.3682 215.793H46.9964C41.896 215.793 39.9287 213.825 39.9287 209.417V206.503C39.9287 202.058 41.896 200.127 46.9964 200.127Z" fill="white"/>
<path d="M91.9527 220.711H100.623L86.7794 206.867L98.4739 195.209H89.8032L78.1088 206.867L91.9527 220.711ZM77.963 220.711V195.209H70.4218V220.711H77.963Z" fill="white"/>
<path d="M103.246 210.037C103.246 216.376 107.29 220.711 113.702 220.711H132.756V215.392H114.686C112.463 215.392 110.788 213.935 110.788 211.384V210.255H131.918V205.082H110.788V203.843C110.788 201.876 112.063 200.528 114.686 200.528H132.756V195.209H113.666C107.29 195.209 103.246 199.581 103.246 205.883V210.037Z" fill="white"/>
<path d="M136.581 195.209V220.711H144.122V202.167L160.006 220.711H171.081V195.209L163.54 195.318V214.044L147.438 195.209H136.581Z" fill="white"/>
<path d="M175.49 210.037C175.49 216.376 179.534 220.711 185.945 220.711H204.999V215.392H186.929C184.707 215.392 183.031 213.935 183.031 211.384V210.255H204.161V205.082H183.031V203.843C183.031 201.876 184.306 200.528 186.929 200.528H204.999V195.209H185.909C179.534 195.209 175.49 199.581 175.49 205.883V210.037Z" fill="white"/>
<path d="M216.949 209.854H231.12C235.674 209.854 235.528 215.392 231.12 215.428H210.755V220.711H234.108L234.071 220.674C239.208 220.237 241.758 216.631 241.831 212.987C241.904 209.016 238.953 205.009 233.051 205.009H219.207C215.018 205.009 215.163 200.091 219.207 200.091H240.046V195.209H215.965L216.001 195.245C211.265 195.646 208.897 198.961 208.824 202.313C208.751 205.993 211.484 209.818 216.949 209.854Z" fill="white"/>
<path d="M245.875 195.209V200.528H256.549V220.711H263.872V200.528H274.546V195.209H245.875Z" fill="white"/>
<path d="M274.474 220.711H282.452C282.452 220.711 286.714 209.49 289.483 203.224C290.248 201.512 291.123 201.074 293.272 201.074C295.422 201.074 296.296 201.512 297.061 203.224C299.83 209.49 304.092 220.711 304.092 220.711H312.071C312.071 220.711 305.732 204.535 303.109 199.253C301.433 195.865 299.138 195.209 295.531 195.209H291.013C287.407 195.209 285.112 195.865 283.436 199.253C280.813 204.535 274.474 220.711 274.474 220.711Z" fill="white"/>
<path d="M310.577 195.209V200.528H321.251V220.711H328.574V200.528H339.248V195.209H310.577Z" fill="white"/>
<path d="M342.964 210.037C342.964 216.376 347.008 220.711 353.42 220.711H372.474V215.392H354.404C352.182 215.392 350.506 213.935 350.506 211.384V210.255H371.636V205.082H350.506V203.843C350.506 201.876 351.781 200.528 354.404 200.528H372.474V195.209H353.384C347.008 195.209 342.964 199.581 342.964 205.883V210.037Z" fill="white"/>
<path d="M222.359 61.4425V54.3366C237.943 65.5823 248.111 83.8977 248.113 104.546C248.113 138.663 220.355 166.421 186.236 166.421C152.119 166.421 124.361 138.663 124.361 104.546C124.361 83.8976 134.529 65.5823 150.117 54.3366V61.4425C137.81 71.7712 129.973 87.2598 129.973 104.546C129.973 124.308 140.217 141.723 155.675 151.761V0L172.344 9.18753V159.071C174.164 159.534 176.018 159.908 177.902 160.188V45.1798L194.572 54.371V160.19C196.454 159.91 198.308 159.536 200.126 159.073V90.4591L216.799 99.6448V151.759C232.255 141.723 242.501 124.31 242.501 104.546C242.501 87.2597 234.662 71.7712 222.359 61.4425Z" fill="white"/>
</svg>
