<svg xmlns:mydata="http://www.w3.org/2000/svg" version="1.1" xmlns="http://www.w3.org/2000/svg" xmlns:xlink="http://www.w3.org/1999/xlink" viewBox="0 0 550 470" class="svg-image-fade">
  <defs style="fill: rgb(255, 255, 255);">
    <linearGradient x1="88.76309" y1="235" x2="461.23691" y2="235" gradientUnits="userSpaceOnUse" id="color-17744622469" style="fill: rgb(255, 255, 255);">
      <stop offset="0" stop-color="#8360c3" style="fill: rgb(255, 255, 255);"/>
      <stop offset="1" stop-color="#2ebf91" style="fill: rgb(255, 255, 255);"/>
    </linearGradient>
  </defs>
  <g fill="url(#color-17744622469)" fill-rule="none" stroke="none" stroke-width="1" stroke-linecap="butt" stroke-linejoin="miter" stroke-miterlimit="10" stroke-dasharray="" stroke-dashoffset="0" font-family="none" font-weight="none" font-size="none" text-anchor="none" style="mix-blend-mode: normal; fill: rgb(255, 255, 255);">
    <g>
      <g>
        <path d="M99.5451,346.51517h-4.91858v8.40849h1.49411v-3.57715h2.90098v-1.36324h-2.90098v-2.09394h3.42447z" />
        <path d="M108.41527,354.91275l-1.84311,-3.19544c1.01425,-0.32718 1.45049,-1.00335 1.45049,-2.24663v-0.43624c0,-1.77767 -0.94882,-2.51927 -2.97732,-2.51927h-2.11575v8.39758h1.50502v-2.95551h0.5562l1.66861,2.95551zM104.4237,350.57218v-2.67196h0.64345c1.16694,0 1.37415,0.41443 1.37415,1.21056v0.28355c0,0.79613 -0.30537,1.17784 -1.39596,1.17784z" />
        <path d="M114.83161,346.52608h-1.49411l-2.32297,8.38667h1.54864l0.43624,-1.48321h2.14847l0.42533,1.48321h1.54864zM113.37021,351.95724l0.69798,-3.1082l0.69798,3.1082z" />
        <path d="M124.3016,352.31714c0,0.82885 -0.27265,1.2869 -1.36324,1.2869c-1.09059,0 -1.29781,-0.45805 -1.29781,-1.25418v-3.26088c0,-0.79613 0.20721,-1.25418 1.29781,-1.25418c1.16694,0 1.36324,0.45805 1.36324,1.276h1.50502c0,-1.86492 -0.83976,-2.60652 -2.86826,-2.60652c-2.02851,0 -2.80283,0.7307 -2.80283,2.50837v3.41356c0,1.73405 0.80704,2.50837 2.80283,2.50837c1.99579,0 2.86826,-0.77432 2.86826,-2.61743z" />
        <path d="M133.61892,346.54789h-4.97311v1.34143h1.74495v7.02343h1.49411v-7.02343h1.73405z" />
        <path d="M138.25758,346.52608h-1.51593v8.39758h1.51593z" />
        <path d="M144.73935,354.98909c1.99579,0 2.86826,-0.77432 2.86826,-2.50837v-3.55534c0,-1.77767 -0.83976,-2.50837 -2.86826,-2.50837c-2.02851,0 -2.80283,0.7307 -2.80283,2.50837v3.55534c0,1.73405 0.80704,2.50837 2.80283,2.50837zM144.73935,353.65857c-1.09059,0 -1.29781,-0.45805 -1.29781,-1.25418v-3.40266c0,-0.76342 0.20721,-1.25418 1.29781,-1.25418c1.16694,0 1.36324,0.49077 1.36324,1.25418v3.40266c0,0.79613 -0.27265,1.25418 -1.36324,1.25418z" />
        <path d="M156.59775,346.52608h-1.49411v1.98488l0.16359,3.54443l-2.46474,-5.52932h-1.49411v8.38667h1.49411v-2.13757l-0.13087,-3.18454l2.46474,5.3221h1.4614z" />
        <path d="M163.53757,346.52608h-1.49411l-2.32297,8.38667h1.54864l0.43624,-1.48321h2.14847l0.42533,1.48321h1.54864zM162.07617,351.95724l0.69798,-3.1082l0.69798,3.1082z" />
        <path d="M173.71646,353.5386h-3.23907v-7.02343h-1.51593v8.39758h4.75499z" />
        <path d="M184.83689,346.52608h-1.49411l-2.32297,8.38667h1.54864l0.43624,-1.48321h2.14847l0.42533,1.48321h1.54864zM183.37549,351.95724l0.69798,-3.1082l0.69798,3.1082z" />
        <path d="M195.53926,346.52608h-1.49411v1.98488l0.16359,3.54443l-2.46474,-5.52932h-1.49411v8.38667h1.49411v-2.13757l-0.13087,-3.18454l2.46474,5.3221h1.4614z" />
        <path d="M199.33816,346.51517v8.39758h2.7592c1.99579,0 2.86826,-0.7307 2.86826,-2.46474v-3.42447c0,-1.77767 -0.83976,-2.50837 -2.86826,-2.50837zM200.83228,353.54951v-5.66019h1.2869c1.16694,0 1.34143,0.41443 1.34143,1.21056v3.27178c0,0.79613 -0.27265,1.17784 -1.36324,1.17784z" />
        <path d="M213.5886,346.51517v8.40849h4.98402v-1.37415h-3.479v-2.21391h2.83555v-1.35234h-2.83555v-2.15938h3.32631v-1.30871z" />
        <path d="M226.91931,346.51517h-4.91858v8.40849h1.49411v-3.57715h2.90098v-1.36324h-2.90098v-2.09394h3.42447z" />
        <path d="M235.21146,346.51517h-4.91858v8.40849h1.49411v-3.57715h2.90098v-1.36324h-2.90098v-2.09394h3.42447z" />
        <path d="M241.27881,354.98909c1.99579,0 2.86826,-0.77432 2.86826,-2.50837v-3.55534c0,-1.77767 -0.83976,-2.50837 -2.86826,-2.50837c-2.02851,0 -2.80283,0.7307 -2.80283,2.50837v3.55534c0,1.73405 0.80704,2.50837 2.80283,2.50837zM241.27881,353.65857c-1.09059,0 -1.29781,-0.45805 -1.29781,-1.25418v-3.40266c0,-0.76342 0.20721,-1.25418 1.29781,-1.25418c1.16694,0 1.36324,0.49077 1.36324,1.25418v3.40266c0,0.79613 -0.27265,1.25418 -1.36324,1.25418z" />
        <path d="M253.34442,354.91275l-1.84311,-3.19544c1.01425,-0.32718 1.45049,-1.00335 1.45049,-2.24663v-0.43624c0,-1.77767 -0.94882,-2.51927 -2.97732,-2.51927h-2.11575v8.39758h1.50502v-2.95551h0.5562l1.66861,2.95551zM249.35284,350.57218v-2.67196h0.64345c1.16694,0 1.37415,0.41443 1.37415,1.21056v0.28355c0,0.79613 -0.30537,1.17784 -1.39596,1.17784z" />
        <path d="M261.36393,353.5386h-3.23907v-7.02343h-1.51593v8.39758h4.75499z" />
        <path d="M264.66116,346.51517v8.40849h4.98402v-1.37415h-3.479v-2.21391h2.83555v-1.35234h-2.83555v-2.15938h3.32631v-1.30871z" />
        <path d="M276.63953,348.70727h1.51593c-0.14178,-1.67952 -1.14512,-2.23572 -2.66105,-2.23572c-1.72314,0 -2.68286,0.81795 -2.68286,2.3884c0,1.73405 1.00335,2.203 1.95216,2.32297c0.89429,0.11997 2.07213,0.11997 2.07213,1.11241c0,0.94882 -0.41443,1.33053 -1.31962,1.33053c-0.95972,0 -1.24328,-0.34899 -1.276,-0.99244h-1.51593c0,1.35234 0.66526,2.36659 2.7592,2.36659c2.0176,0 2.85736,-0.81795 2.85736,-2.7592c0,-1.67952 -0.92701,-2.07213 -1.89764,-2.22481c-1.276,-0.19631 -2.11575,-0.10906 -2.11575,-1.16694c0,-0.79613 0.33808,-1.05788 1.16694,-1.05788c0.7307,0 1.1015,0.20721 1.14512,0.9161z" />
        <path d="M285.49879,348.70727h1.51593c-0.14178,-1.67952 -1.14512,-2.23572 -2.66105,-2.23572c-1.72314,0 -2.68286,0.81795 -2.68286,2.3884c0,1.73405 1.00335,2.203 1.95216,2.32297c0.89429,0.11997 2.07213,0.11997 2.07213,1.11241c0,0.94882 -0.41443,1.33053 -1.31962,1.33053c-0.95972,0 -1.24328,-0.34899 -1.276,-0.99244h-1.51593c0,1.35234 0.66526,2.36659 2.7592,2.36659c2.0176,0 2.85736,-0.81795 2.85736,-2.7592c0,-1.67952 -0.92701,-2.07213 -1.89764,-2.22481c-1.276,-0.19631 -2.11575,-0.10906 -2.11575,-1.16694c0,-0.79613 0.33808,-1.05788 1.16694,-1.05788c0.7307,0 1.1015,0.20721 1.14512,0.9161z" />
        <path d="M301.22154,354.91275l-1.84311,-3.19544c1.01425,-0.32718 1.45049,-1.00335 1.45049,-2.24663v-0.43624c0,-1.77767 -0.94882,-2.51927 -2.97732,-2.51927h-2.11575v8.39758h1.50502v-2.95551h0.5562l1.66861,2.95551zM297.22996,350.57218v-2.67196h0.64345c1.16694,0 1.37415,0.41443 1.37415,1.21056v0.28355c0,0.79613 -0.30537,1.17784 -1.39596,1.17784z" />
        <path d="M304.48605,346.51517v8.40849h4.98402v-1.37415h-3.479v-2.21391h2.83555v-1.35234h-2.83555v-2.15938h3.32631v-1.30871z" />
        <path d="M316.0609,346.52608h-1.49411l-2.32297,8.38667h1.54864l0.43624,-1.48321h2.14847l0.42533,1.48321h1.54864zM314.5995,351.95724l0.69798,-3.1082l0.69798,3.1082z" />
        <path d="M326.23978,353.5386h-3.23907v-7.02343h-1.51593v8.39758h4.75499z" />
        <path d="M334.54648,346.51517v8.40849h4.98402v-1.37415h-3.479v-2.21391h2.83555v-1.35234h-2.83555v-2.15938h3.32631v-1.30871z" />
        <path d="M346.52485,348.70727h1.51593c-0.14178,-1.67952 -1.14512,-2.23572 -2.66105,-2.23572c-1.72314,0 -2.68286,0.81795 -2.68286,2.3884c0,1.73405 1.00335,2.203 1.95216,2.32297c0.89429,0.11997 2.07213,0.11997 2.07213,1.11241c0,0.94882 -0.41443,1.33053 -1.31962,1.33053c-0.95972,0 -1.24328,-0.34899 -1.276,-0.99244h-1.51593c0,1.35234 0.66526,2.36659 2.7592,2.36659c2.0176,0 2.85736,-0.81795 2.85736,-2.7592c0,-1.67952 -0.92701,-2.07213 -1.89764,-2.22481c-1.276,-0.19631 -2.11575,-0.10906 -2.11575,-1.16694c0,-0.79613 0.33808,-1.05788 1.16694,-1.05788c0.7307,0 1.1015,0.20721 1.14512,0.9161z" />
        <path d="M356.04937,346.54789h-4.97311v1.34143h1.74495v7.02343h1.49411v-7.02343h1.73405z" />
        <path d="M361.61504,346.52608h-1.49411l-2.32297,8.38667h1.54864l0.43624,-1.48321h2.14847l0.42533,1.48321h1.54864zM360.15365,351.95724l0.69798,-3.1082l0.69798,3.1082z" />
        <path d="M371.33588,346.54789h-4.97311v1.34143h1.74495v7.02343h1.49411v-7.02343h1.73405z" />
        <path d="M374.45861,346.51517v8.40849h4.98402v-1.37415h-3.479v-2.21391h2.83555v-1.35234h-2.83555v-2.15938h3.32631v-1.30871z" />
        <path d="M389.40703,346.52608h-1.51593v8.39758h1.51593z" />
        <path d="M398.48442,346.52608h-1.49411v1.98488l0.16359,3.54443l-2.46474,-5.52932h-1.49411v8.38667h1.49411v-2.13757l-0.13087,-3.18454l2.46474,5.3221h1.4614z" />
        <path d="M406.16584,346.52608l-0.7307,2.54109l-0.77432,3.94795l-0.78523,-3.92614l-0.7307,-2.5629h-1.53774l2.26844,8.39758h1.57046l2.25753,-8.39758z" />
        <path d="M410.83722,346.51517v8.40849h4.98402v-1.37415h-3.479v-2.21391h2.83555v-1.35234h-2.83555v-2.15938h3.32631v-1.30871z" />
        <path d="M422.81559,348.70727h1.51593c-0.14178,-1.67952 -1.14512,-2.23572 -2.66105,-2.23572c-1.72314,0 -2.68286,0.81795 -2.68286,2.3884c0,1.73405 1.00335,2.203 1.95216,2.32297c0.89429,0.11997 2.07213,0.11997 2.07213,1.11241c0,0.94882 -0.41443,1.33053 -1.31962,1.33053c-0.95972,0 -1.24328,-0.34899 -1.276,-0.99244h-1.51593c0,1.35234 0.66526,2.36659 2.7592,2.36659c2.0176,0 2.85736,-0.81795 2.85736,-2.7592c0,-1.67952 -0.92701,-2.07213 -1.89764,-2.22481c-1.276,-0.19631 -2.11575,-0.10906 -2.11575,-1.16694c0,-0.79613 0.33808,-1.05788 1.16694,-1.05788c0.7307,0 1.1015,0.20721 1.14512,0.9161z" />
        <path d="M432.34012,346.54789h-4.97311v1.34143h1.74495v7.02343h1.49411v-7.02343h1.73405z" />
        <path d="M436.97878,346.52608h-1.51593v8.39758h1.51593z" />
        <path d="M446.05617,346.52608h-1.49411v1.98488l0.16359,3.54443l-2.46474,-5.52932h-1.49411v8.38667h1.49411v-2.13757l-0.13087,-3.18454l2.46474,5.3221h1.4614z" />
        <path d="M452.54884,351.49919h1.42868v0.81795c0,0.82885 -0.38171,1.2869 -1.4723,1.2869c-1.09059,0 -1.29781,-0.45805 -1.29781,-1.25418v-3.2936c0,-0.76342 0.20721,-1.25418 1.29781,-1.25418c1.16694,0 1.36324,0.39261 1.36324,1.17784h1.50502c0,-1.79948 -0.83976,-2.50837 -2.86826,-2.50837c-2.02851,0 -2.80283,0.79613 -2.80283,2.50837v3.36994c0,1.81039 0.80704,2.60652 2.80283,2.60652c1.99579,0 2.86826,-0.79613 2.86826,-2.63924v-2.18119h-2.82464z" />
      </g>
      <g>
        <path d="M88.76309,310.20918v5.31897h10.67438v20.18295h7.3227v-20.18295h10.67438v-5.31897z" />
        <path d="M121.15053,324.56312c0,6.48478 4.33533,11.14798 13.00598,11.14798h7.61415c8.67065,0 13.00598,-4.66321 13.00598,-11.14798v-3.20596c0,-6.48478 -4.33533,-11.14798 -13.00598,-11.14798h-7.61415c-8.67065,0 -13.00598,4.66321 -13.00598,11.14798zM135.75949,315.12741h4.37176c5.13682,0 7.10411,1.93086 7.10411,6.37548v2.91451c0,4.40819 -1.96729,6.37548 -7.10411,6.37548h-4.37176c-5.10038,0 -7.06768,-1.96729 -7.06768,-6.37548v-2.91451c0,-4.44462 1.96729,-6.37548 7.06768,-6.37548z" />
        <path d="M180.71574,335.7111h8.67065l-13.8439,-13.8439l11.69445,-11.65802h-8.67065l-11.69445,11.65802zM166.72611,335.7111v-25.50192h-7.54128v25.50192z" />
        <path d="M192.00945,325.03672c0,6.33905 4.04388,10.67438 10.45579,10.67438h19.05358v-5.31897h-18.06994c-2.22231,0 -3.89815,-1.45725 -3.89815,-4.00745v-1.12937h21.13017v-5.17325h-21.13017v-1.23866c0,-1.96729 1.2751,-3.31525 3.89815,-3.31525h18.06994v-5.31897h-19.09001c-6.37548,0 -10.41936,4.37176 -10.41936,10.67438z" />
        <path d="M225.34411,310.20918v25.50192h7.54128v-18.54354l15.88406,18.54354h11.07512v-25.50192l-7.54128,0.10929v18.7257l-16.10264,-18.83499z" />
        <path d="M264.25276,325.03672c0,6.33905 4.04388,10.67438 10.45579,10.67438h19.05358v-5.31897h-18.06994c-2.22231,0 -3.89815,-1.45725 -3.89815,-4.00745v-1.12937h21.13017v-5.17325h-21.13017v-1.23866c0,-1.96729 1.2751,-3.31525 3.89815,-3.31525h18.06994v-5.31897h-19.09001c-6.37548,0 -10.41936,4.37176 -10.41936,10.67438z" />
        <path d="M305.7116,324.85457h14.17178c4.55392,0 4.40819,5.53756 0,5.57399h-20.36511v5.28254h23.35248l-0.03643,-0.03643c5.13682,-0.43718 7.68701,-4.04388 7.75987,-7.68701c0.07286,-3.97101 -2.87807,-7.97846 -8.77995,-7.97846h-13.8439c-4.1896,0 -4.04388,-4.91823 0,-4.91823h20.83872v-4.8818h-24.0811l0.03643,0.03643c-4.73607,0.40074 -7.10411,3.71599 -7.17697,7.06768c-0.07286,3.67956 2.65949,7.50485 8.12418,7.54128z" />
        <path d="M334.63807,310.20918v5.31897h10.67438v20.18295h7.3227v-20.18295h10.67438v-5.31897z" />
        <path d="M363.23666,335.7111h7.97846c0,0 4.26246,-11.22085 7.03124,-17.48703c0.76506,-1.71227 1.63941,-2.14945 3.78886,-2.14945c2.14945,0 3.0238,0.43718 3.78886,2.14945c2.76878,6.26619 7.03124,17.48703 7.03124,17.48703h7.97846c0,0 -6.33905,-16.17551 -8.9621,-21.45805c-1.67584,-3.38811 -3.97101,-4.04388 -7.57771,-4.04388h-4.51748c-3.6067,0 -5.90187,0.65576 -7.57771,4.04388c-2.62306,5.28254 -8.9621,21.45805 -8.9621,21.45805z" />
        <path d="M399.3401,310.20918v5.31897h10.67438v20.18295h7.3227v-20.18295h10.67438v-5.31897z" />
        <path d="M431.72754,325.03672c0,6.33905 4.04388,10.67438 10.45579,10.67438h19.05358v-5.31897h-18.06994c-2.22231,0 -3.89815,-1.45725 -3.89815,-4.00745v-1.12937h21.13017v-5.17325h-21.13017v-1.23866c0,-1.96729 1.2751,-3.31525 3.89815,-3.31525h18.06994v-5.31897h-19.09001c-6.37548,0 -10.41936,4.37176 -10.41936,10.67438z" />
      </g>
      <g>
        <path d="M311.12161,176.44247v-7.10586c15.58442,11.24568 25.75219,29.56104 25.75401,50.20945c0,34.11682 -27.75789,61.87471 -61.87652,61.87471c-34.11682,0 -61.87471,-27.75789 -61.87471,-61.87471c0,-20.64842 10.16777,-38.96378 25.75581,-50.20945v7.10586c-12.3073,10.32873 -20.14383,25.8173 -20.14383,43.10359c0,19.76222 10.24372,37.17692 25.70156,47.21446v-151.76052l16.66957,9.18753v149.88322c1.81942,0.46299 3.6732,0.83736 5.55773,1.1177v-115.00861l16.66957,9.19114v105.81928c1.88272,-0.28033 3.7365,-0.6547 5.55411,-1.1177v-68.61344l16.67318,9.18571v52.11387c15.45602,-10.03574 25.70156,-27.44863 25.70156,-47.21266c0,-17.28629 -7.83834,-32.77487 -20.14201,-43.10359z" />
      </g>
    </g>
  </g>
</svg>
